<svg width="96" height="33" viewBox="0 0 96 33" fill="none" xmlns="http://www.w3.org/2000/svg">
<path fill-rule="evenodd" clip-rule="evenodd" d="M2.18701 0.250244H0.190186V0.250298V4.25024V4.2503H2.18701L2.187 9.2503L2.187 13.2503L2.18701 22.7502H6.18064V13.2503H9.17587C12.76 13.2503 15.6655 10.3401 15.6655 6.7503C15.6655 3.16045 12.76 0.250297 9.17587 0.250297L2.20789 0.250298L2.18701 0.250244ZM6.18064 4.2503V9.2503H9.17587C10.5544 9.2503 11.6719 8.13101 11.6719 6.7503C11.6719 5.36958 10.5544 4.2503 9.17587 4.2503H6.18064ZM18.1614 0.250244H22.1551V22.7502H18.1614V0.250244ZM35.1345 15.5002C35.1345 17.2952 33.6818 18.7502 31.8897 18.7502C30.0976 18.7502 28.6449 17.2952 28.6449 15.5002C28.6449 13.7053 30.0976 12.2502 31.8897 12.2502C33.6818 12.2502 35.1345 13.7053 35.1345 15.5002ZM31.8897 22.7502C33.0564 22.7502 34.1587 22.4737 35.1348 21.9826V22.7502H39.1284V8.75017H35.1348V9.01784C34.1587 8.52672 33.0564 8.25023 31.8897 8.25023C27.892 8.25023 24.6512 11.4962 24.6512 15.5002C24.6512 19.5043 27.892 22.7502 31.8897 22.7502ZM45.6178 16.7503V8.75029H41.6242V16.7503C41.6242 20.3401 44.5297 23.2503 48.1138 23.2503C48.9983 23.2503 49.8415 23.0731 50.6099 22.7521V25.7503C50.6099 27.131 49.4924 28.2503 48.1138 28.2503H47.8642C46.6236 28.2503 45.6178 27.2429 45.6178 26.0003H41.6242C41.6242 29.4521 44.4179 32.2503 47.8642 32.2503H48.1138C51.698 32.2503 54.6035 29.3401 54.6035 25.7503V16.7503V8.75029H50.6099V16.7503C50.6099 18.131 49.4924 19.2503 48.1138 19.2503C46.7353 19.2503 45.6178 18.131 45.6178 16.7503ZM61.0932 0.250244H57.0995V22.7502H61.0932V0.250244ZM70.8276 18.7502C72.6196 18.7502 74.0724 17.2952 74.0724 15.5002C74.0724 13.7053 72.6196 12.2502 70.8276 12.2502C69.0355 12.2502 67.5827 13.7053 67.5827 15.5002C67.5827 17.2952 69.0355 18.7502 70.8276 18.7502ZM74.0725 21.9827C73.0965 22.4738 71.9942 22.7502 70.8276 22.7502C66.8299 22.7502 63.5891 19.5043 63.5891 15.5002C63.5891 11.4962 66.8299 8.25023 70.8276 8.25023C71.9942 8.25023 73.0965 8.52669 74.0725 9.01776V8.75017H78.0661V22.7502H74.0725V21.9827ZM87.8006 18.7502C89.5926 18.7502 91.0454 17.2952 91.0454 15.5002C91.0454 13.7053 89.5926 12.2502 87.8006 12.2502C86.0085 12.2502 84.5557 13.7053 84.5557 15.5002C84.5557 17.2952 86.0085 18.7502 87.8006 18.7502ZM87.8006 22.7502C91.7983 22.7502 95.039 19.5043 95.039 15.5002C95.039 11.4962 91.7983 8.25023 87.8006 8.25023C86.6339 8.25023 85.5317 8.52668 84.5557 9.01774V0.250244H80.5621V22.7502H84.5557V21.9827C85.5317 22.4738 86.6339 22.7502 87.8006 22.7502Z" fill="white"/>
<g clip-path="url(#clip0_8_684)">
<path d="M0.190186 0.250244H2.187C4.39263 0.250244 6.18064 2.0411 6.18064 4.25024V22.7502H2.187V4.25024H0.190186V0.250244Z" fill="white"/>
<path fill-rule="evenodd" clip-rule="evenodd" d="M9.17587 4.25025L0.190185 4.25025L0.190185 0.250247L9.17587 0.250247C12.76 0.250246 15.6655 3.1604 15.6655 6.75024C15.6655 10.3401 12.76 13.2502 9.17587 13.2502L2.187 13.2502L2.187 9.25025L9.17587 9.25024C10.5544 9.25024 11.6719 8.13096 11.6719 6.75025C11.6719 5.36953 10.5544 4.25025 9.17587 4.25025Z" fill="white" style="mix-blend-mode:multiply"/>
<rect x="18.1614" y="0.250244" width="3.99364" height="22.5" fill="white"/>
<path fill-rule="evenodd" clip-rule="evenodd" d="M31.8896 18.7502C33.6817 18.7502 35.1344 17.2952 35.1344 15.5002C35.1344 13.7053 33.6817 12.2502 31.8896 12.2502C30.0975 12.2502 28.6448 13.7053 28.6448 15.5002C28.6448 17.2952 30.0975 18.7502 31.8896 18.7502ZM31.8896 22.7502C35.8873 22.7502 39.1281 19.5043 39.1281 15.5002C39.1281 11.4962 35.8873 8.25024 31.8896 8.25024C27.8919 8.25024 24.6511 11.4962 24.6511 15.5002C24.6511 19.5043 27.8919 22.7502 31.8896 22.7502Z" fill="white"/>
<path d="M35.1348 8.75012H39.1284V22.7501H35.1348V8.75012Z" fill="white" style="mix-blend-mode:multiply"/>
<path fill-rule="evenodd" clip-rule="evenodd" d="M45.6179 8.75024V16.7502C45.6179 18.131 46.7354 19.2502 48.1139 19.2502C49.4924 19.2502 50.61 18.131 50.61 16.7502V8.75024H54.6036V16.7502C54.6036 20.3401 51.6981 23.2502 48.1139 23.2502C44.5298 23.2502 41.6243 20.3401 41.6243 16.7502V8.75024H45.6179Z" fill="white"/>
<path fill-rule="evenodd" clip-rule="evenodd" d="M50.61 25.7502V8.75024H54.6036V25.7502C54.6036 29.3401 51.6981 32.2502 48.1139 32.2502H47.8643C44.418 32.2502 41.6243 29.452 41.6243 26.0002H45.6179C45.6179 27.2429 46.6237 28.2502 47.8643 28.2502H48.1139C49.4924 28.2502 50.61 27.131 50.61 25.7502Z" fill="white" style="mix-blend-mode:multiply"/>
<rect x="57.0996" y="0.250244" width="3.99364" height="22.5" fill="white"/>
<path fill-rule="evenodd" clip-rule="evenodd" d="M70.8276 18.7502C72.6197 18.7502 74.0724 17.2952 74.0724 15.5002C74.0724 13.7053 72.6197 12.2502 70.8276 12.2502C69.0355 12.2502 67.5828 13.7053 67.5828 15.5002C67.5828 17.2952 69.0355 18.7502 70.8276 18.7502ZM70.8276 22.7502C74.8253 22.7502 78.0661 19.5043 78.0661 15.5002C78.0661 11.4962 74.8253 8.25024 70.8276 8.25024C66.8299 8.25024 63.5891 11.4962 63.5891 15.5002C63.5891 19.5043 66.8299 22.7502 70.8276 22.7502Z" fill="white"/>
<path d="M74.0725 8.75012H78.0662V22.7501H74.0725V8.75012Z" fill="white" style="mix-blend-mode:multiply"/>
<path fill-rule="evenodd" clip-rule="evenodd" d="M87.8005 18.7502C89.5925 18.7502 91.0453 17.2952 91.0453 15.5002C91.0453 13.7053 89.5925 12.2502 87.8005 12.2502C86.0084 12.2502 84.5556 13.7053 84.5556 15.5002C84.5556 17.2952 86.0084 18.7502 87.8005 18.7502ZM87.8005 22.7502C91.7982 22.7502 95.0389 19.5043 95.0389 15.5002C95.0389 11.4962 91.7982 8.25024 87.8005 8.25024C83.8028 8.25024 80.562 11.4962 80.562 15.5002C80.562 19.5043 83.8028 22.7502 87.8005 22.7502Z" fill="white"/>
<path d="M80.562 0.250244H84.5556V22.7502H80.562V0.250244Z" fill="white" style="mix-blend-mode:multiply"/>
</g>
<g clip-path="url(#clip1_8_684)">
<path d="M0.190186 0.25061H2.187C4.39263 0.25061 6.18064 2.04147 6.18064 4.25061V22.7506H2.187V4.25061H0.190186V0.25061Z" fill="#FFC938"/>
<path fill-rule="evenodd" clip-rule="evenodd" d="M9.17587 4.25061L0.190185 4.25061L0.190185 0.250613L9.17587 0.250613C12.76 0.250613 15.6655 3.16076 15.6655 6.75061C15.6655 10.3405 12.76 13.2506 9.17587 13.2506L2.187 13.2506L2.187 9.25061L9.17587 9.25061C10.5544 9.25061 11.6719 8.13132 11.6719 6.75061C11.6719 5.3699 10.5544 4.25061 9.17587 4.25061Z" fill="#0FC87A" style="mix-blend-mode:multiply"/>
<rect x="18.1614" y="0.25061" width="3.99364" height="22.5" fill="#00C3FA"/>
<path fill-rule="evenodd" clip-rule="evenodd" d="M31.8896 18.7506C33.6817 18.7506 35.1344 17.2955 35.1344 15.5006C35.1344 13.7057 33.6817 12.2506 31.8896 12.2506C30.0975 12.2506 28.6448 13.7057 28.6448 15.5006C28.6448 17.2955 30.0975 18.7506 31.8896 18.7506ZM31.8896 22.7506C35.8873 22.7506 39.1281 19.5047 39.1281 15.5006C39.1281 11.4965 35.8873 8.25061 31.8896 8.25061C27.8919 8.25061 24.6511 11.4965 24.6511 15.5006C24.6511 19.5047 27.8919 22.7506 31.8896 22.7506Z" fill="#00C3FA"/>
<path d="M35.1348 8.75049H39.1284V22.7505H35.1348V8.75049Z" fill="#FF3B37" style="mix-blend-mode:multiply"/>
<path fill-rule="evenodd" clip-rule="evenodd" d="M45.6179 8.75061V16.7506C45.6179 18.1313 46.7354 19.2506 48.1139 19.2506C49.4924 19.2506 50.61 18.1313 50.61 16.7506V8.75061H54.6036V16.7506C54.6036 20.3405 51.6981 23.2506 48.1139 23.2506C44.5298 23.2506 41.6243 20.3405 41.6243 16.7506V8.75061H45.6179Z" fill="#FF3B37"/>
<path fill-rule="evenodd" clip-rule="evenodd" d="M50.61 25.7506V8.75061H54.6036V25.7506C54.6036 29.3405 51.6981 32.2506 48.1139 32.2506H47.8643C44.418 32.2506 41.6243 29.4524 41.6243 26.0006H45.6179C45.6179 27.2432 46.6237 28.2506 47.8643 28.2506H48.1139C49.4924 28.2506 50.61 27.1313 50.61 25.7506Z" fill="#01B1E2" style="mix-blend-mode:multiply"/>
<rect x="57.0996" y="0.25061" width="3.99364" height="22.5" fill="#00C3FA"/>
<path fill-rule="evenodd" clip-rule="evenodd" d="M70.8276 18.7506C72.6197 18.7506 74.0724 17.2955 74.0724 15.5006C74.0724 13.7057 72.6197 12.2506 70.8276 12.2506C69.0355 12.2506 67.5828 13.7057 67.5828 15.5006C67.5828 17.2955 69.0355 18.7506 70.8276 18.7506ZM70.8276 22.7506C74.8253 22.7506 78.0661 19.5047 78.0661 15.5006C78.0661 11.4965 74.8253 8.25061 70.8276 8.25061C66.8299 8.25061 63.5891 11.4965 63.5891 15.5006C63.5891 19.5047 66.8299 22.7506 70.8276 22.7506Z" fill="#00C3FA"/>
<path d="M74.0725 8.75049H78.0662V22.7505H74.0725V8.75049Z" fill="#FF3B37" style="mix-blend-mode:multiply"/>
<path fill-rule="evenodd" clip-rule="evenodd" d="M87.8005 18.7506C89.5925 18.7506 91.0453 17.2955 91.0453 15.5006C91.0453 13.7057 89.5925 12.2506 87.8005 12.2506C86.0084 12.2506 84.5556 13.7057 84.5556 15.5006C84.5556 17.2955 86.0084 18.7506 87.8005 18.7506ZM87.8005 22.7506C91.7982 22.7506 95.0389 19.5047 95.0389 15.5006C95.0389 11.4965 91.7982 8.25061 87.8005 8.25061C83.8028 8.25061 80.562 11.4965 80.562 15.5006C80.562 19.5047 83.8028 22.7506 87.8005 22.7506Z" fill="#FFC938"/>
<path d="M80.562 0.25061H84.5556V22.7506H80.562V0.25061Z" fill="#DE39B2" style="mix-blend-mode:multiply"/>
</g>
<path fill-rule="evenodd" clip-rule="evenodd" d="M35.1345 15.4901C35.1345 15.486 35.1345 15.4818 35.1345 15.4776C35.1345 15.4735 35.1345 15.4693 35.1345 15.4651V8.99512C37.4978 10.1841 39.1211 12.6314 39.1282 15.4592V15.4961C39.1211 18.3238 37.4978 20.7711 35.1345 21.9602V15.4901Z" fill="#15606F" style="mix-blend-mode:multiply"/>
<path fill-rule="evenodd" clip-rule="evenodd" d="M74.0413 15.4901C74.0413 15.486 74.0413 15.4818 74.0413 15.4776C74.0413 15.4735 74.0413 15.4693 74.0413 15.4651V8.99512C76.4045 10.1841 78.0279 12.6314 78.0349 15.4592V15.4961C78.0279 18.3238 76.4045 20.7711 74.0413 21.9602V15.4901Z" fill="#15606F" style="mix-blend-mode:multiply"/>
<path fill-rule="evenodd" clip-rule="evenodd" d="M54.6035 8.80127H50.6099V16.8013V22.8031C52.9551 21.8235 54.6035 19.5052 54.6035 16.8013V8.80127Z" fill="#15606F" style="mix-blend-mode:multiply"/>
<defs>
<clipPath id="clip0_8_684">
<rect width="94.8489" height="32" fill="white" transform="translate(0.190186 0.250244)"/>
</clipPath>
<clipPath id="clip1_8_684">
<rect width="94.8489" height="32" fill="white" transform="translate(0.190186 0.25061)"/>
</clipPath>
</defs>
</svg>
