<?xml version="1.0" encoding="UTF-8"?>
<svg id="Layer_1" data-name="Layer 1" xmlns="http://www.w3.org/2000/svg" viewBox="0 0 3000 3000">
  <defs>
    <style>
      .cls-1 {
        fill: #0c0f13;
      }
    </style>
  </defs>
  <g id="jHKcwF.tif">
    <path class="cls-1" d="M1883.36,2620.74c-122.02,47.01-249.14,62.44-377.37,46.47l-115.24-16.67c-49.2-7.12-96.22-25.04-137.68-52.48l-70.89-46.93-47.28-36.71c-88.41-68.64-156.04-157.78-185.91-266.66l-23.58-95.61-73.05-9.38-62.38-11.88c-46.73-3.08-189.53-85.57-189.53-85.57l-57.04-42.65c-70.4-52.64-129.38-120.41-166.19-200.23-36.37-78.88-55.58-162.92-58.21-250.29-2.15-71.33,2.08-140.51,10.6-211.26,9.47-78.6,28.68-156.19,59.49-229.12,66.56-157.56,171.1-331.64,293.69-455.44,109.33-136.26,247.52-240.42,405.37-315.03,21.7-17.85,90.6-39.61,157.88-55.25,56.91-13.23,115.65-16.41,173.67-9.58l67.91,7.99c30.41,3.58,59.99,12.33,87.46,25.86l83.05,40.93c51.41-28.1,107.43-28.07,164.94-23.28,0,0,111.93.1,269.13,55.12,94.65,33.13,140.11,78.29,170.38,99.39,35.37,24.65,97.35,98.95,123.05,134.88,81.74,108.5,92.6,185.2,123.92,317.8,14.23,60.25,19.02,118.77,14.3,179.08,99.87,179.46,156.72,350.75,112.37,556.1-27.82,143.12-89.61,335.28-176.68,450.64l-129.01,170.92c-36.3,48.09-76.59,90.28-124.46,126.56-23.16,23.95-45.78,45.16-73.01,65.11-76.86,56.31-159.28,102.33-249.69,137.16ZM916.43,2014.57c17.26-18.03-.71-44.35-14-62.43-29.18-39.69-52.53-80.7-68.92-127.76-20.98-60.24-34.65-121.18-40.54-185.01-5.4-58.53-1.53-113.81,2.21-172.41,6.89-107.93,30.48-211.01,72.37-310.75,24.04-57.23,50.19-110.69,82.31-163.99,44.07-73.11,87.61-145.78,144.21-209.62l95-107.14c37.7-42.52,78.29-81.74,121.61-117.62,59.49-49.27,190.13-101.37,181.94-134.82-8.52-34.78-132.93-24.81-132.93-24.81-81.71,9.12-124.06,22.55-165.59,36.59-80.85,28.61-115.62,58.25-188.01,104.52-69.77,44.6-129.78,98.11-185.48,159.21-97.7,107.15-183.96,222.75-256.43,348.48-61.69,107.03-103.39,222.07-119.82,344.73-20.41,152.43-22.39,343.37,83.36,462.98,28.77,32.54,58.61,62.38,92.76,89.1,33.49,26.21,73.87,38.94,114.93,47.37,30.46,6.26,51.71,12.38,83.06,19.43,0,0,82.11,20.47,97.96,3.92ZM2285.93,657.17c-54.43-54.43-113.6-133.33-264.02-180.42-78.44-24.56-200.35-59.3-217.96-42.3-13.45,12.99,52.44,68.31,101.81,146.84,46.23,73.54,88.48,183.97,100.94,190.65,36.83,19.76,130.1,46.31,147.64,53.69l135.09,61.92c37.37,19.24,86.79,65.12,104.45,55.98,31.36-16.25-65.76-244.18-107.93-286.36ZM1086.57,1432.78c38.94-63.37,77.34-123.28,123.49-180.19,34.46-42.5,70.03-81.5,106.86-122.02,102.68-112.97,224.97-203.46,362.26-269.34l87.78-47.93c28.96-13.88,54.99-24.44,84.03-40.08,14.72-7.93,26.8-18.83,21.17-34.57-22.54-63.02-46.05-76.32-81.95-141.88-8.58-8.07-62.27-98.08-123.46-106.13-34.14-4.49-128.82,71.64-128.82,71.64-93.57,56.95-204.33,149.16-275.09,229.28-79.81,90.38-150.14,187.7-211.89,291.11-53.28,89.22-114.82,244.03-131.19,346.65-13.37,83.76-24.63,157.39-18.11,241.43,3.3,42.47,10.22,130.06,33.92,131.99,26.44,2.15,32.56-101.16,51.87-152.34,28.1-74.49,57.82-150.39,99.13-217.63ZM1256.64,1957.11c37.57-12.12,70.18-30.58,102.1-51.55l86.97-57.16c22.06-14.5,42.53-31.3,61.06-50.11l77.06-78.25,60.12-68.18c54.51-68.15,103.08-138.59,147.12-214.06,29.32-50.24,52.39-100.32,71.29-155.32,37.96-110.5,78.25-333.04,63.15-354.45-9.98-14.15-54.3,4.08-80.56,12.84-71.72,23.92-138.4,55.71-204.45,92.68-58.06,34.92-111.69,72.95-160.34,120.48-142.9,139.61-279.27,318.43-362.59,500.36-42.86,93.58-80.19,183.06-86.22,287.3,0,0-6.74,38.48,7.65,51.92,24.55,22.94,51.12,16.1,66.92,12.15l150.74-48.63ZM1845.91,1953.75l88.03-58.47c42.76-28.4,144.87-136.58,181.09-182.88,62.67-80.11,150.14-202.53,188.95-293.01,23.14-53.95,40.69-107.91,57.15-164.3,12.99-44.51,31.84-88.01,27.73-133.68-3.52-39.2-53.4-85.86-86.26-105.06-69.87-40.82-248.86-124.93-252.48-72.98-19.23,275.45-84.61,482.43-189.71,659.64l-111.82,153.71c-34.64,47.62-73.56,89.46-118.18,127.71l-90.12,77.25c-46.6,48.51-182.84,88.05-180.91,110.66,1.61,18.89,130.25.12,195.65-6.97,102.71-17.07,203.11-53.34,290.89-111.64ZM1126.43,2372.92c29.61,29.89,57.12,60.65,91.9,85.07,53.74,37.74,116.26,56.78,181.39,64.7,81.56,9.92,160.07,11.96,241.93,4.42,65.26-6.01,128.98-23.03,191.19-43.63,17.18-5.69,33.83-12.06,50.58-21.33,68.26-37.76,135.43-76.09,196.04-126.14,55.02-45.43,103.23-96.27,149.15-150.84,80.87-96.1,197.09-266.37,231.05-383.89l41.89-144.95c12.89-52.64,21.26-106.53,22.52-160.31,1.55-66.59-4.17-171.01-32.48-172.18-30.86-1.27-41.16,110.65-69.54,175.07-29.37,66.65-65,130.63-108.42,190.62l-94.75,130.91c-22.3,30.81-47.75,59.2-75.95,84.72l-101.99,92.32c-33,29.87-69.26,55.94-108.08,77.71l-90.63,50.83c-69.84,39.17-145.73,67.2-224.69,80.53-79.21,13.37-157.74,15.88-237.21,3.36l-113.55-19.51c-11.45-1.97-103.83-23.71-124.51-31.78-100.88-39.36-99.73,3.44-97.86,29.72,4.16,58.4,29.19,121.53,82.02,184.55Z"/>
  </g>
</svg>