<?xml version="1.0" encoding="UTF-8"?>
<svg id="Layer_1" data-name="Layer 1" xmlns="http://www.w3.org/2000/svg" viewBox="0 0 6497.11 1837.55">
  <defs>
    <style>
      .cls-1 {
        fill: #0f0f0f;
      }
    </style>
  </defs>
  <path class="cls-1" d="M1867.05,1290.34V422.68c0-8.3,6.73-15.02,15.02-15.02h398.36c99.74,0,177.13,24.94,232.18,74.81,55.03,49.87,82.57,118.41,82.57,205.59s-27.53,154.79-82.57,205.03c-55.05,50.25-132.44,75.36-232.18,75.36h-244.31c-8.3,0-15.02,6.73-15.02,15.02v306.87c0,8.3-6.73,15.02-15.02,15.02h-124c-8.3,0-15.02-6.73-15.02-15.02ZM2021.1,821.54c0,8.3,6.73,15.02,15.02,15.02h235.45c55.41,0,97.53-13.3,126.34-39.9,28.82-26.6,43.22-62.79,43.22-108.61s-14.41-82.93-43.22-109.17c-28.82-26.22-70.93-39.34-126.34-39.34h-235.45c-8.3,0-15.02,6.73-15.02,15.02v266.97Z"/>
  <path class="cls-1" d="M3210.59,1329.1c-73.39,0-131.28-18.17-173.66-54.5-42.4-36.34-63.59-84.06-63.59-143.2s21.37-110.08,64.12-144.27c42.75-34.2,104.01-51.3,183.82-51.3h188.03c8.3,0,15.02-6.73,15.02-15.02v-11.69c0-85.5-48.46-128.24-145.34-128.24-77.34,0-125.47,26.34-144.41,79.02-2.11,5.87-7.8,9.68-14.04,9.68h-115.75c-9.75,0-16.97-9.16-14.61-18.61,14.31-57.26,44.5-101.99,90.57-134.21,50.93-35.62,117.37-53.43,199.31-53.43,91.91,0,162.07,21.21,210.53,63.59,48.44,42.4,72.67,103.85,72.67,184.35v244.67c0,8.3,6.73,15.02,15.02,15.02h39.42c8.3,0,15.02,6.73,15.02,15.02v116.36c0,8.3-6.73,15.02-15.02,15.02h-120.64c-8.3,0-15.02-6.73-15.02-15.02v-71.48c0-8.3-6.73-15.02-15.02-15.02h-21.68c-4.97,0-9.65,2.43-12.41,6.57-21.63,32.5-50.15,58.09-85.55,76.79-37.77,19.94-83.36,29.92-136.79,29.92ZM3231.97,1215.82c36.34,0,69.1-7.11,98.32-21.37,29.21-14.24,52.18-33.3,68.93-57.18,16.73-23.86,25.11-50.4,25.11-79.62v-5.28c0-8.3-6.73-15.02-15.02-15.02h-180.55c-78.38,0-117.56,29.22-117.56,87.63,0,28.5,10.69,50.76,32.06,66.79,21.37,16.03,50.93,24.05,88.7,24.05Z"/>
  <path class="cls-1" d="M4999.08,1329.1c-73.39,0-131.28-18.17-173.66-54.5-42.4-36.34-63.59-84.06-63.59-143.2s21.37-110.08,64.12-144.27c42.75-34.2,104.01-51.3,183.82-51.3h188.03c8.3,0,15.02-6.73,15.02-15.02v-11.69c0-85.5-48.46-128.24-145.34-128.24-77.34,0-125.47,26.34-144.41,79.02-2.11,5.87-7.8,9.68-14.04,9.68h-115.75c-9.75,0-16.97-9.16-14.61-18.61,14.31-57.26,44.5-101.99,90.57-134.21,50.93-35.62,117.37-53.43,199.31-53.43,91.91,0,162.07,21.21,210.53,63.59,48.44,42.4,72.67,103.85,72.67,184.35v244.67c0,8.3,6.73,15.02,15.02,15.02h39.42c8.3,0,15.02,6.73,15.02,15.02v116.36c0,8.3-6.73,15.02-15.02,15.02h-120.64c-8.3,0-15.02-6.73-15.02-15.02v-71.48c0-8.3-6.73-15.02-15.02-15.02h-21.68c-4.97,0-9.65,2.43-12.41,6.57-21.63,32.5-50.15,58.09-85.55,76.79-37.77,19.94-83.36,29.92-136.79,29.92ZM5020.45,1215.82c36.34,0,69.1-7.11,98.32-21.37,29.21-14.24,52.18-33.3,68.93-57.18,16.73-23.86,25.11-50.4,25.11-79.62v-5.28c0-8.3-6.73-15.02-15.02-15.02h-180.55c-78.38,0-117.56,29.22-117.56,87.63,0,28.5,10.69,50.76,32.06,66.79,21.37,16.03,50.93,24.05,88.7,24.05Z"/>
  <path class="cls-1" d="M5914.97,1331.01c-52.73,0-97.97-9.8-135.72-29.39-35.38-18.34-63.54-44.35-84.53-78.01-2.71-4.35-7.52-6.95-12.65-6.95h-21.38c-8.3,0-15.02,6.73-15.02,15.02v71.48c0,8.3-6.73,15.02-15.02,15.02h-121.71c-8.3,0-15.02-6.73-15.02-15.02v-116.36c0-8.3,6.73-15.02,15.02-15.02h43.69c8.3,0,15.02-6.73,15.02-15.02V435.51c0-8.3,6.73-15.02,15.02-15.02h115.29c8.3,0,15.02,6.73,15.02,15.02v334.94c0,1.49,1.21,2.71,2.71,2.71h0c.97,0,1.86-.53,2.33-1.38,19.2-34.23,46.55-60.67,82.06-79.31,35.97-18.87,78.18-28.32,126.64-28.32,61.27,0,113.82,13.54,157.63,40.61,43.82,27.08,77.3,65.72,100.46,115.95,23.14,50.23,34.73,109.19,34.73,176.87s-11.94,126.47-35.8,176.33c-23.88,49.88-58.43,88.53-103.66,115.95-45.25,27.44-100.29,41.14-165.11,41.14ZM5889.32,1205.97c59.85,0,105.62-18.52,137.33-55.57,31.69-37.04,47.56-87.98,47.56-152.82s-15.86-115.77-47.56-152.82c-31.71-37.04-77.48-55.57-137.33-55.57-53.43,0-96.18,15.33-128.24,45.95-32.06,30.64-48.09,71.97-48.09,123.97v76.95c0,52.02,16.03,93.34,48.09,123.97,32.06,30.64,74.81,45.95,128.24,45.95Z"/>
  <rect class="cls-1" x="2708.5" y="432.75" width="138.32" height="896.36" rx="11.53" ry="11.53"/>
  <rect class="cls-1" x="4489.66" y="432.75" width="138.32" height="896.36" rx="11.53" ry="11.53"/>
  <path class="cls-1" d="M3812.88,1547.81v-84.72c0-8.18,6.63-14.8,14.8-14.8h334.52c23.7,0,48.73-12.7,48.73-38.11v-177.17c0-3.34-2.71-6.05-6.05-6.05h-9.66c-2.82,0-5.34,1.64-6.59,4.18-7.6,15.45-18.6,30.36-32.97,44.73-15.68,15.68-46.9,36.19-73.24,43.62-41.51,11.71-62.09,10.36-101.88,10.36-47.43,0-89.77-10.6-127.03-31.76-37.28-21.16-66.49-51.23-87.65-90.19-21.18-38.94-31.76-94.98-31.76-148.33v-362.47c0-8.18,6.63-14.8,14.8-14.8h111.1c8.18,0,14.8,6.63,14.8,14.8v352.31c0,54.2,13.54,94.22,40.65,120.04,27.09,25.84,54.91,38.74,103.18,38.74,53.35,0,86.46-17.78,119.06-53.35,32.59-35.57,48.91-87.21,48.91-154.97v-302.77c0-8.18,6.63-14.8,14.8-14.8h111.1c8.18,0,14.8,6.63,14.8,14.8v739.74c0,38.11-11.23,68.6-33.66,91.46-22.45,22.86-53.15,34.3-92.09,34.3h-373.9c-8.18,0-14.8-6.63-14.8-14.8Z"/>
  <g id="jHKcwF.tif">
    <path class="cls-1" d="M1138.45,1529.04c-67.83,26.13-138.5,34.71-209.78,25.84l-64.06-9.27c-27.35-3.96-53.49-13.92-76.53-29.17l-39.41-26.09-26.28-20.4c-49.15-38.16-86.74-87.71-103.35-148.24l-13.11-53.15-40.61-5.21-34.68-6.6c-25.98-1.71-105.36-47.57-105.36-47.57l-31.71-23.71c-39.14-29.26-71.92-66.93-92.39-111.31-20.22-43.85-30.9-90.57-32.36-139.14-1.19-39.65,1.15-78.11,5.89-117.44,5.27-43.69,15.95-86.83,33.07-127.37,37-87.59,95.12-184.36,163.26-253.18,60.77-75.75,137.6-133.65,225.34-175.12,12.06-9.92,50.37-22.02,87.77-30.71,31.64-7.35,64.29-9.12,96.54-5.33l37.75,4.44c16.91,1.99,33.35,6.85,48.62,14.38l46.16,22.75c28.58-15.62,59.72-15.6,91.69-12.94,0,0,62.22.05,149.61,30.64,52.62,18.42,77.89,43.52,94.71,55.25,19.66,13.7,54.12,55.01,68.4,74.98,45.44,60.32,51.48,102.95,68.88,176.66,7.91,33.49,10.57,66.03,7.95,99.55,55.52,99.76,87.12,194.98,62.47,309.13-15.47,79.56-49.81,186.38-98.22,250.51l-71.72,95.01c-20.18,26.73-42.57,50.19-69.19,70.35-12.87,13.31-25.45,25.1-40.59,36.2-42.72,31.3-88.55,56.88-138.8,76.25ZM600.93,1192.08c9.59-10.02-.4-24.65-7.78-34.7-16.22-22.06-29.2-44.86-38.31-71.02-11.66-33.49-19.26-67.37-22.53-102.85-3-32.54-.85-63.27,1.23-95.84,3.83-60,16.94-117.3,40.23-172.75,13.36-31.82,27.9-61.53,45.76-91.16,24.5-40.64,48.7-81.04,80.17-116.53l52.81-59.56c20.96-23.64,43.52-45.44,67.6-65.38,33.07-27.39,105.69-56.35,101.14-74.94-4.74-19.34-73.9-13.79-73.9-13.79-45.42,5.07-68.96,12.54-92.05,20.34-44.94,15.91-64.27,32.38-104.52,58.1-38.79,24.79-72.15,54.54-103.11,88.5-54.31,59.57-102.26,123.83-142.55,193.72-34.29,59.5-57.48,123.45-66.61,191.63-11.35,84.73-12.45,190.88,46.34,257.37,15.99,18.09,32.58,34.68,51.56,49.53,18.62,14.57,41.07,21.65,63.89,26.33,16.94,3.48,28.74,6.88,46.17,10.8,0,0,45.65,11.38,54.45,2.18ZM1362.24,437.5c-30.26-30.26-63.15-74.12-146.77-100.29-43.61-13.65-111.37-32.96-121.16-23.51-7.48,7.22,29.15,37.97,56.59,81.63,25.7,40.88,49.18,102.27,56.11,105.98,20.47,10.99,72.33,25.74,82.07,29.84l75.09,34.42c20.78,10.7,48.25,36.2,58.06,31.12,17.43-9.03-36.55-135.74-60-159.19ZM695.51,868.66c21.65-35.23,42.99-68.53,68.65-100.17,19.16-23.63,38.93-45.3,59.4-67.83,57.08-62.8,125.06-113.1,201.38-149.73l48.8-26.65c16.1-7.72,30.57-13.59,46.71-22.28,8.18-4.41,14.9-10.47,11.77-19.22-12.53-35.03-25.6-42.43-45.55-78.87-4.77-4.48-34.61-54.52-68.63-59-18.98-2.5-71.61,39.82-71.61,39.82-52.02,31.66-113.59,82.92-152.92,127.46-44.37,50.24-83.46,104.34-117.79,161.83-29.62,49.6-63.83,135.66-72.93,192.7-7.43,46.56-13.69,87.49-10.06,134.21,1.83,23.61,5.68,72.3,18.86,73.37,14.7,1.19,18.1-56.23,28.83-84.69,15.62-41.41,32.14-83.6,55.11-120.98ZM790.05,1160.13c20.88-6.74,39.01-17,56.76-28.66l48.35-31.78c12.27-8.06,23.64-17.4,33.94-27.86l42.84-43.5,33.42-37.9c30.3-37.89,57.3-77.04,81.79-119,16.3-27.93,29.12-55.77,39.63-86.34,21.1-61.43,43.5-185.13,35.1-197.04-5.55-7.86-30.18,2.27-44.79,7.14-39.87,13.3-76.94,30.97-113.65,51.52-32.27,19.41-62.09,40.55-89.13,66.97-79.44,77.61-155.24,177.01-201.56,278.15-23.82,52.02-44.58,101.76-47.93,159.71,0,0-3.75,21.39,4.25,28.86,13.65,12.75,28.41,8.95,37.2,6.76l83.8-27.03ZM1117.63,1158.27l48.94-32.5c23.77-15.79,80.53-75.92,100.67-101.66,34.84-44.53,83.46-112.58,105.04-162.88,12.86-29.99,22.62-59.99,31.77-91.33,7.22-24.74,17.7-48.92,15.42-74.31-1.96-21.79-29.68-47.73-47.95-58.4-38.84-22.69-138.34-69.45-140.36-40.57-10.69,153.12-47.03,268.18-105.46,366.69l-62.16,85.45c-19.26,26.47-40.89,49.73-65.7,71l-50.1,42.94c-25.9,26.97-101.64,48.95-100.57,61.52.89,10.5,72.41.07,108.76-3.88,57.1-9.49,112.91-29.65,161.7-62.06ZM717.67,1391.28c16.46,16.61,31.75,33.71,51.09,47.29,29.88,20.98,64.63,31.56,100.83,35.97,45.34,5.52,88.98,6.65,134.49,2.46,36.28-3.34,71.7-12.8,106.28-24.26,9.55-3.16,18.81-6.71,28.12-11.86,37.95-20.99,75.29-42.3,108.98-70.12,30.58-25.25,57.39-53.51,82.91-83.85,44.95-53.42,109.56-148.07,128.44-213.4l23.29-80.58c7.17-29.26,11.82-59.22,12.52-89.11.86-37.02-2.32-95.06-18.05-95.71-17.15-.71-22.88,61.51-38.66,97.32-16.33,37.05-36.13,72.61-60.27,105.97l-52.67,72.77c-12.4,17.13-26.54,32.91-42.22,47.1l-56.7,51.32c-18.35,16.61-38.5,31.1-60.08,43.2l-50.38,28.25c-38.82,21.77-81.01,37.35-124.9,44.77-44.03,7.43-87.69,8.83-131.87,1.87l-63.12-10.84c-6.36-1.09-57.72-13.18-69.21-17.66-56.08-21.88-55.44,1.91-54.4,16.52,2.31,32.47,16.22,67.56,45.59,102.59Z"/>
  </g>
</svg>