<svg width="96" height="33" viewBox="0 0 96 33" fill="none" xmlns="http://www.w3.org/2000/svg">
<path fill-rule="evenodd" clip-rule="evenodd" d="M2.18701 0.75H0.190186V0.750054V4.75V4.75005H2.18701L2.187 9.75005L2.187 13.7501L2.18701 23.25H6.18064V13.7501H9.17587C12.76 13.75 15.6655 10.8399 15.6655 7.25005C15.6655 3.6602 12.76 0.750053 9.17587 0.750053L2.20789 0.750054L2.18701 0.75ZM6.18064 4.75005V9.75005H9.17587C10.5544 9.75005 11.6719 8.63076 11.6719 7.25005C11.6719 5.86934 10.5544 4.75005 9.17587 4.75005H6.18064ZM18.1614 0.75H22.1551V23.25H18.1614V0.75ZM35.1345 16C35.1345 17.7949 33.6818 19.25 31.8897 19.25C30.0976 19.25 28.6449 17.7949 28.6449 16C28.6449 14.2051 30.0976 12.75 31.8897 12.75C33.6818 12.75 35.1345 14.2051 35.1345 16ZM31.8897 23.25C33.0564 23.25 34.1587 22.9735 35.1348 22.4824V23.2499H39.1284V9.24992H35.1348V9.51759C34.1587 9.02647 33.0564 8.74999 31.8897 8.74999C27.892 8.74999 24.6512 11.9959 24.6512 16C24.6512 20.004 27.892 23.25 31.8897 23.25ZM45.6178 17.25V9.25005H41.6242V17.25C41.6242 20.8399 44.5297 23.75 48.1138 23.75C48.9983 23.75 49.8415 23.5728 50.6099 23.2519V26.25C50.6099 27.6308 49.4924 28.75 48.1138 28.75H47.8642C46.6236 28.75 45.6178 27.7427 45.6178 26.5H41.6242C41.6242 29.9518 44.4179 32.75 47.8642 32.75H48.1138C51.698 32.75 54.6035 29.8399 54.6035 26.25V17.25V9.25005H50.6099V17.25C50.6099 18.6308 49.4924 19.75 48.1138 19.75C46.7353 19.75 45.6178 18.6308 45.6178 17.25ZM61.0932 0.75H57.0995V23.25H61.0932V0.75ZM70.8276 19.25C72.6196 19.25 74.0724 17.7949 74.0724 16C74.0724 14.2051 72.6196 12.75 70.8276 12.75C69.0355 12.75 67.5827 14.2051 67.5827 16C67.5827 17.7949 69.0355 19.25 70.8276 19.25ZM74.0725 22.4825C73.0965 22.9735 71.9942 23.25 70.8276 23.25C66.8299 23.25 63.5891 20.004 63.5891 16C63.5891 11.9959 66.8299 8.74999 70.8276 8.74999C71.9942 8.74999 73.0965 9.02644 74.0725 9.51752V9.24992H78.0661V23.2499H74.0725V22.4825ZM87.8006 19.25C89.5926 19.25 91.0454 17.7949 91.0454 16C91.0454 14.2051 89.5926 12.75 87.8006 12.75C86.0085 12.75 84.5557 14.2051 84.5557 16C84.5557 17.7949 86.0085 19.25 87.8006 19.25ZM87.8006 23.25C91.7983 23.25 95.039 20.004 95.039 16C95.039 11.9959 91.7983 8.74999 87.8006 8.74999C86.6339 8.74999 85.5317 9.02644 84.5557 9.5175V0.75H80.5621V23.25H84.5557V22.4825C85.5317 22.9735 86.6339 23.25 87.8006 23.25Z" fill="white"/>
<g clip-path="url(#clip0_8_685)">
<path d="M0.190186 0.75H2.187C4.39263 0.75 6.18064 2.54086 6.18064 4.75V23.25H2.187V4.75H0.190186V0.75Z" fill="white"/>
<path fill-rule="evenodd" clip-rule="evenodd" d="M9.17587 4.75L0.190185 4.75L0.190185 0.750003L9.17587 0.750002C12.76 0.750002 15.6655 3.66015 15.6655 7.25C15.6655 10.8399 12.76 13.75 9.17587 13.75L2.187 13.75L2.187 9.75L9.17587 9.75C10.5544 9.75 11.6719 8.63071 11.6719 7.25C11.6719 5.86929 10.5544 4.75 9.17587 4.75Z" fill="white" style="mix-blend-mode:multiply"/>
<rect x="18.1616" y="0.75" width="3.99364" height="22.5" fill="white"/>
<path fill-rule="evenodd" clip-rule="evenodd" d="M31.8896 19.25C33.6817 19.25 35.1344 17.7949 35.1344 16C35.1344 14.2051 33.6817 12.75 31.8896 12.75C30.0975 12.75 28.6448 14.2051 28.6448 16C28.6448 17.7949 30.0975 19.25 31.8896 19.25ZM31.8896 23.25C35.8873 23.25 39.1281 20.0041 39.1281 16C39.1281 11.9959 35.8873 8.75 31.8896 8.75C27.8919 8.75 24.6511 11.9959 24.6511 16C24.6511 20.0041 27.8919 23.25 31.8896 23.25Z" fill="white"/>
<path d="M35.1345 9.24988H39.1282V23.2499H35.1345V9.24988Z" fill="white" style="mix-blend-mode:multiply"/>
<path fill-rule="evenodd" clip-rule="evenodd" d="M45.6179 9.25V17.25C45.6179 18.6307 46.7354 19.75 48.1139 19.75C49.4924 19.75 50.61 18.6307 50.61 17.25V9.25H54.6036V17.25C54.6036 20.8398 51.6981 23.75 48.1139 23.75C44.5298 23.75 41.6243 20.8398 41.6243 17.25V9.25H45.6179Z" fill="white"/>
<path fill-rule="evenodd" clip-rule="evenodd" d="M50.61 26.25V9.25H54.6036V26.25C54.6036 29.8398 51.6981 32.75 48.1139 32.75H47.8643C44.418 32.75 41.6243 29.9518 41.6243 26.5H45.6179C45.6179 27.7426 46.6237 28.75 47.8643 28.75H48.1139C49.4924 28.75 50.61 27.6307 50.61 26.25Z" fill="white" style="mix-blend-mode:multiply"/>
<rect x="57.0996" y="0.75" width="3.99364" height="22.5" fill="white"/>
<path fill-rule="evenodd" clip-rule="evenodd" d="M70.8276 19.25C72.6197 19.25 74.0724 17.7949 74.0724 16C74.0724 14.2051 72.6197 12.75 70.8276 12.75C69.0355 12.75 67.5828 14.2051 67.5828 16C67.5828 17.7949 69.0355 19.25 70.8276 19.25ZM70.8276 23.25C74.8253 23.25 78.0661 20.0041 78.0661 16C78.0661 11.9959 74.8253 8.75 70.8276 8.75C66.8299 8.75 63.5891 11.9959 63.5891 16C63.5891 20.0041 66.8299 23.25 70.8276 23.25Z" fill="white"/>
<path d="M74.0723 9.24988H78.0659V23.2499H74.0723V9.24988Z" fill="white" style="mix-blend-mode:multiply"/>
<path fill-rule="evenodd" clip-rule="evenodd" d="M87.8007 19.25C89.5928 19.25 91.0456 17.7949 91.0456 16C91.0456 14.2051 89.5928 12.75 87.8007 12.75C86.0087 12.75 84.5559 14.2051 84.5559 16C84.5559 17.7949 86.0087 19.25 87.8007 19.25ZM87.8007 23.25C91.7984 23.25 95.0392 20.0041 95.0392 16C95.0392 11.9959 91.7984 8.75 87.8007 8.75C83.803 8.75 80.5623 11.9959 80.5623 16C80.5623 20.0041 83.803 23.25 87.8007 23.25Z" fill="white"/>
<path d="M80.5623 0.75H84.5559V23.25H80.5623V0.75Z" fill="white" style="mix-blend-mode:multiply"/>
</g>
<g clip-path="url(#clip1_8_685)">
<path d="M0.190186 0.750366H2.187C4.39263 0.750366 6.18064 2.54123 6.18064 4.75037V23.2504H2.187V4.75037H0.190186V0.750366Z" fill="#FFC938"/>
<path fill-rule="evenodd" clip-rule="evenodd" d="M9.17587 4.75037L0.190185 4.75037L0.190185 0.750369L9.17587 0.750369C12.76 0.750369 15.6655 3.66052 15.6655 7.25037C15.6655 10.8402 12.76 13.7504 9.17587 13.7504L2.187 13.7504L2.187 9.75037L9.17587 9.75037C10.5544 9.75037 11.6719 8.63108 11.6719 7.25037C11.6719 5.86966 10.5544 4.75037 9.17587 4.75037Z" fill="#0FC87A" style="mix-blend-mode:multiply"/>
<rect x="18.1616" y="0.750366" width="3.99364" height="22.5" fill="#00C3FA"/>
<path fill-rule="evenodd" clip-rule="evenodd" d="M31.8896 19.2504C33.6817 19.2504 35.1344 17.7953 35.1344 16.0004C35.1344 14.2054 33.6817 12.7504 31.8896 12.7504C30.0975 12.7504 28.6448 14.2054 28.6448 16.0004C28.6448 17.7953 30.0975 19.2504 31.8896 19.2504ZM31.8896 23.2504C35.8873 23.2504 39.1281 20.0044 39.1281 16.0004C39.1281 11.9963 35.8873 8.75037 31.8896 8.75037C27.8919 8.75037 24.6511 11.9963 24.6511 16.0004C24.6511 20.0044 27.8919 23.2504 31.8896 23.2504Z" fill="#00C3FA"/>
<path d="M35.1345 9.25024H39.1282V23.2502H35.1345V9.25024Z" fill="#FF3B37" style="mix-blend-mode:multiply"/>
<path fill-rule="evenodd" clip-rule="evenodd" d="M45.6179 9.25037V17.2504C45.6179 18.6311 46.7354 19.7504 48.1139 19.7504C49.4924 19.7504 50.61 18.6311 50.61 17.2504V9.25037H54.6036V17.2504C54.6036 20.8402 51.6981 23.7504 48.1139 23.7504C44.5298 23.7504 41.6243 20.8402 41.6243 17.2504V9.25037H45.6179Z" fill="#FF3B37"/>
<path fill-rule="evenodd" clip-rule="evenodd" d="M50.61 26.2504V9.25037H54.6036V26.2504C54.6036 29.8402 51.6981 32.7504 48.1139 32.7504H47.8643C44.418 32.7504 41.6243 29.9521 41.6243 26.5004H45.6179C45.6179 27.743 46.6237 28.7504 47.8643 28.7504H48.1139C49.4924 28.7504 50.61 27.6311 50.61 26.2504Z" fill="#01B1E2" style="mix-blend-mode:multiply"/>
<rect x="57.0996" y="0.750366" width="3.99364" height="22.5" fill="#00C3FA"/>
<path fill-rule="evenodd" clip-rule="evenodd" d="M70.8276 19.2504C72.6197 19.2504 74.0724 17.7953 74.0724 16.0004C74.0724 14.2054 72.6197 12.7504 70.8276 12.7504C69.0355 12.7504 67.5828 14.2054 67.5828 16.0004C67.5828 17.7953 69.0355 19.2504 70.8276 19.2504ZM70.8276 23.2504C74.8253 23.2504 78.0661 20.0044 78.0661 16.0004C78.0661 11.9963 74.8253 8.75037 70.8276 8.75037C66.8299 8.75037 63.5891 11.9963 63.5891 16.0004C63.5891 20.0044 66.8299 23.2504 70.8276 23.2504Z" fill="#00C3FA"/>
<path d="M74.0723 9.25024H78.0659V23.2502H74.0723V9.25024Z" fill="#FF3B37" style="mix-blend-mode:multiply"/>
<path fill-rule="evenodd" clip-rule="evenodd" d="M87.8007 19.2504C89.5928 19.2504 91.0456 17.7953 91.0456 16.0004C91.0456 14.2054 89.5928 12.7504 87.8007 12.7504C86.0087 12.7504 84.5559 14.2054 84.5559 16.0004C84.5559 17.7953 86.0087 19.2504 87.8007 19.2504ZM87.8007 23.2504C91.7984 23.2504 95.0392 20.0044 95.0392 16.0004C95.0392 11.9963 91.7984 8.75037 87.8007 8.75037C83.803 8.75037 80.5623 11.9963 80.5623 16.0004C80.5623 20.0044 83.803 23.2504 87.8007 23.2504Z" fill="#FFC938"/>
<path d="M80.5623 0.750366H84.5559V23.2504H80.5623V0.750366Z" fill="#DE39B2" style="mix-blend-mode:multiply"/>
</g>
<path fill-rule="evenodd" clip-rule="evenodd" d="M35.1345 15.9899C35.1345 15.9857 35.1345 15.9816 35.1345 15.9774C35.1345 15.9732 35.1345 15.9691 35.1345 15.9649V9.49487C37.4978 10.6839 39.1211 13.1312 39.1282 15.959V15.9958C39.1211 18.8236 37.4978 21.2709 35.1345 22.4599V15.9899Z" fill="#15606F" style="mix-blend-mode:multiply"/>
<path fill-rule="evenodd" clip-rule="evenodd" d="M74.0413 15.9899C74.0413 15.9857 74.0413 15.9816 74.0413 15.9774C74.0413 15.9732 74.0413 15.9691 74.0413 15.9649V9.49487C76.4045 10.6839 78.0279 13.1312 78.0349 15.959V15.9958C78.0279 18.8236 76.4045 21.2709 74.0413 22.4599V15.9899Z" fill="#15606F" style="mix-blend-mode:multiply"/>
<path fill-rule="evenodd" clip-rule="evenodd" d="M54.6035 9.30103H50.6099V17.301V23.3029C52.9551 22.3233 54.6035 20.005 54.6035 17.301V9.30103Z" fill="#15606F" style="mix-blend-mode:multiply"/>
<defs>
<clipPath id="clip0_8_685">
<rect width="94.8489" height="32" fill="white" transform="translate(0.190186 0.75)"/>
</clipPath>
<clipPath id="clip1_8_685">
<rect width="94.8489" height="32" fill="white" transform="translate(0.190186 0.750366)"/>
</clipPath>
</defs>
</svg>
