<svg xmlns="http://www.w3.org/2000/svg" width="148" height="50" viewBox="0 0 148 50" fill="none"><path d="M141.178 0H117.019L123.065 6.04639H141.178V0Z" fill="#0A4A84"></path><path d="M141.178 24.16L147.225 30.2064V6.04688H141.178V24.16Z" fill="#76B82A"></path><path d="M123.065 6.04688L115.377 13.7221V23.0263L127.704 10.6989L123.065 6.04688Z" fill="#76B82A"></path><path d="M136.526 19.5078L124.199 31.8482H133.503L141.178 24.1599L136.526 19.5078Z" fill="#0A4A84"></path><g style="mix-blend-mode:multiply"><path d="M6.89341 21.8433V32.2811H3.71384V21.8433H0V19.1328H10.6072V21.8433H6.89341Z" fill="#76B82A"></path><path d="M17.7874 32.2779V27.261C17.7874 26.2185 17.5268 25.3063 16.4322 25.3063C15.3376 25.3063 14.7773 26.1794 14.7773 27.274V32.2779H11.728V18.2305H14.7773V24.1987H14.8164C15.2203 23.4559 16.1846 22.7653 17.4747 22.7653C19.9767 22.7653 20.8497 24.6939 20.8497 26.5573V32.2779H17.7874Z" fill="#76B82A"></path><path d="M31.704 28.4863H24.9931C25.0843 29.5027 26.1137 30.2324 27.2083 30.2324C28.1726 30.2324 28.8503 29.8285 29.2542 29.2681L31.3783 30.6103C30.5052 31.8743 29.0588 32.578 27.1823 32.578C24.3936 32.578 22.0872 30.8058 22.0872 27.6914C22.0872 24.577 24.2764 22.7266 27.0911 22.7266C29.9058 22.7266 31.7301 24.603 31.7301 27.7565C31.7301 27.9911 31.7301 28.2647 31.704 28.4863ZM28.9154 26.5968C28.9154 25.6325 28.303 24.8376 27.0911 24.8376C25.8792 24.8376 25.0713 25.6585 24.9931 26.5968H28.9154Z" fill="#76B82A"></path><path d="M38.4282 32.2785V19.1172H41.6208V29.5029H46.7159V32.2655H38.4282V32.2785Z" fill="#76B82A"></path><path d="M56.9978 28.4863H50.2869C50.3781 29.5027 51.4075 30.2324 52.5021 30.2324C53.4664 30.2324 54.144 29.8285 54.548 29.2681L56.659 30.6103C55.786 31.8743 54.3395 32.578 52.463 32.578C49.6744 32.578 47.3679 30.8058 47.3679 27.6914C47.3679 24.577 49.5571 22.7266 52.3718 22.7266C55.1865 22.7266 57.0239 24.603 57.0239 27.7565C57.0239 27.9911 57.0239 28.2647 57.0109 28.4863H56.9978ZM54.2092 26.5968C54.2092 25.6325 53.5967 24.8376 52.3849 24.8376C51.173 24.8376 50.3651 25.6585 50.2869 26.5968H54.2092Z" fill="#76B82A"></path><path d="M58.2751 24.2903C59.3567 23.2739 60.8943 22.7266 62.4059 22.7266C65.5073 22.7266 66.654 24.2512 66.654 27.6132V32.2783H63.8654V31.2879H63.8133C63.3441 32.0568 62.2886 32.4998 61.194 32.4998C59.7215 32.4998 57.832 31.7701 57.832 29.5939C57.832 26.9225 61.0898 26.4665 63.7742 26.4665V26.3231C63.7742 25.411 63.0444 24.9809 62.1062 24.9809C61.2331 24.9809 60.3731 25.4109 59.8258 25.9322L58.2881 24.2773L58.2751 24.2903ZM63.8654 28.2517H63.4745C62.1323 28.2517 60.6337 28.4211 60.6337 29.5157C60.6337 30.2194 61.3374 30.467 61.9498 30.467C63.1747 30.467 63.8654 29.7242 63.8654 28.5775V28.2647V28.2517Z" fill="#76B82A"></path><path d="M74.3027 25.5113C74.0291 25.4331 73.7684 25.42 73.5208 25.42C71.892 25.42 71.3447 26.7622 71.3447 27.518V32.2744H68.2954V23.0223H71.2274V24.3645H71.2665C71.7356 23.4393 72.6347 22.7617 73.7815 22.7617C74.016 22.7617 74.2766 22.7748 74.433 22.8399L74.3027 25.5113Z" fill="#76B82A"></path><path d="M81.4178 32.2744V27.2183C81.4178 26.2019 81.1442 25.2637 80.0496 25.2637C78.955 25.2637 78.4207 26.1889 78.4207 27.2574V32.2744H75.3584V23.0223H78.3164V24.2994H78.3555C78.7856 23.4784 79.8411 22.7617 81.1181 22.7617C83.607 22.7617 84.4931 24.6903 84.4931 26.5537V32.2744H81.4309H81.4178Z" fill="#76B82A"></path><path d="M87.5811 21.7461C86.5908 21.7461 85.835 20.9903 85.835 20.0781C85.835 19.166 86.5908 18.4102 87.5811 18.4102C88.5715 18.4102 89.3273 19.1529 89.3273 20.0781C89.3273 21.0033 88.5454 21.7461 87.5811 21.7461ZM86.0565 32.2752V23.0231H89.1057V32.2752H86.0565Z" fill="#76B82A"></path><path d="M96.8986 32.2744V27.2183C96.8986 26.2019 96.625 25.2637 95.5173 25.2637C94.4097 25.2637 93.8885 26.1889 93.8885 27.2574V32.2744H90.8262V23.0223H93.7842V24.2994H93.8233C94.2533 23.4784 95.3088 22.7617 96.5859 22.7617C99.0748 22.7617 99.9739 24.6903 99.9739 26.5537V32.2744H96.9117H96.8986Z" fill="#76B82A"></path><path d="M105.981 36.7466C104.366 36.7466 102.463 36.2254 101.225 35.3001L102.75 33.124C103.649 33.9058 104.77 34.2968 105.812 34.2968C107.597 34.2968 108.431 33.2543 108.431 31.7166V31.1563H108.379C107.806 31.8991 106.802 32.3812 105.577 32.3812C102.776 32.3812 101.16 30.192 101.16 27.6249C101.16 25.0578 102.776 22.7773 105.564 22.7773C106.711 22.7773 107.871 23.2465 108.522 24.2238H108.562V23.038H111.441V31.4169C111.441 35.0395 109.291 36.7466 105.994 36.7466H105.981ZM106.281 25.2532C104.913 25.2532 104.105 26.3087 104.105 27.5988C104.105 28.8889 104.9 29.9574 106.281 29.9574C107.662 29.9574 108.535 28.8628 108.535 27.5988C108.535 26.3348 107.662 25.2532 106.281 25.2532Z" fill="#76B82A"></path><path d="M23.7428 49.7004L22.7133 47.1202H17.6182L16.6539 49.7004H13.2007L18.7258 36.5391H21.8142L27.2742 49.7004H23.7428ZM20.2244 40.0574L18.5564 44.5792H21.8663L20.2374 40.0574H20.2244Z" fill="#0A4A84"></path><path d="M34.2325 43.4453C33.8937 43.0022 33.2292 42.7025 32.6167 42.7025C31.3266 42.7025 30.4796 43.7971 30.4796 45.0872C30.4796 46.3773 31.3136 47.4458 32.6558 47.4458C33.2683 47.4458 33.9328 47.2112 34.3107 46.7552L36.0048 48.8141C35.249 49.5568 33.9459 49.9999 32.5906 49.9999C29.6717 49.9999 27.4043 48.1364 27.4043 45.0742C27.4043 42.0119 29.6847 40.1484 32.5646 40.1484C33.8807 40.1484 35.275 40.6566 36.0048 41.3994L34.2456 43.4453H34.2325Z" fill="#0A4A84"></path><path d="M43.08 43.4453C42.7542 43.0022 42.0766 42.7025 41.4641 42.7025C40.1871 42.7025 39.327 43.7971 39.327 45.0872C39.327 46.3773 40.161 47.4458 41.5032 47.4458C42.1157 47.4458 42.7802 47.2113 43.1581 46.7552L44.8522 48.8141C44.0833 49.5568 42.7933 49.9999 41.4381 49.9999C38.5191 49.9999 36.2517 48.1365 36.2517 45.0742C36.2517 42.0119 38.5321 40.1484 41.412 40.1484C42.7281 40.1484 44.1224 40.6566 44.8522 41.3994L43.08 43.4453Z" fill="#0A4A84"></path><path d="M54.6391 45.9081H47.9281C48.0194 46.9376 49.0488 47.6543 50.1434 47.6543C51.1077 47.6543 51.7723 47.2503 52.1893 46.69L54.3133 48.0322C53.4403 49.2962 51.9938 49.9999 50.1173 49.9999C47.3287 49.9999 45.0222 48.2407 45.0222 45.1133C45.0222 41.9858 47.2114 40.1484 50.0261 40.1484C52.8408 40.1484 54.6782 42.0249 54.6782 45.1784C54.6782 45.426 54.6782 45.6866 54.6652 45.9081H54.6391ZM51.8505 44.0186C51.8505 43.0544 51.238 42.2595 50.0261 42.2595C48.8142 42.2595 47.9933 43.0804 47.9281 44.0186H51.8505Z" fill="#0A4A84"></path><path d="M56.1636 49.6998V35.6523H59.2519V49.6998H56.1636Z" fill="#0A4A84"></path><path d="M70.0547 45.9081H63.3438C63.435 46.9376 64.4514 47.6543 65.559 47.6543C66.5233 47.6543 67.2009 47.2503 67.6049 46.69L69.7159 48.0322C68.8428 49.2962 67.3964 49.9999 65.5199 49.9999C62.7313 49.9999 60.4248 48.2407 60.4248 45.1133C60.4248 41.9858 62.614 40.1484 65.4287 40.1484C68.2434 40.1484 70.0808 42.0249 70.0808 45.1784C70.0808 45.426 70.0808 45.6866 70.0678 45.9081H70.0547ZM67.2661 44.0186C67.2661 43.0544 66.6536 42.2595 65.4417 42.2595C64.2299 42.2595 63.4219 43.0804 63.3438 44.0186H67.2661Z" fill="#0A4A84"></path><path d="M77.4043 42.941C77.1306 42.8628 76.87 42.8497 76.6224 42.8497C74.9935 42.8497 74.4462 44.1919 74.4462 44.9477V49.704H71.397V40.452H74.329V41.7942H74.368C74.8372 40.869 75.7363 40.1914 76.87 40.1914C77.1176 40.1914 77.3652 40.2175 77.5216 40.2696L77.3912 42.941H77.4043Z" fill="#0A4A84"></path><path d="M78.2769 41.7122C79.3585 40.6957 80.8962 40.1484 82.4078 40.1484C85.5092 40.1484 86.6689 41.6731 86.6689 45.0351V49.7002H83.8803V48.7098H83.8282C83.359 49.4656 82.3035 49.9217 81.2089 49.9217C79.7364 49.9217 77.8469 49.192 77.8469 47.0158C77.8469 44.3444 81.1047 43.8883 83.8021 43.8883V43.732C83.8021 42.8198 83.0724 42.3898 82.1341 42.3898C81.261 42.3898 80.401 42.8198 79.8537 43.341L78.316 41.6861L78.2769 41.7122ZM83.8672 45.6736H83.4763C82.1341 45.6736 80.6356 45.843 80.6356 46.9376C80.6356 47.6413 81.3392 47.8889 81.9517 47.8889C83.1766 47.8889 83.8672 47.1461 83.8672 45.9863V45.6736Z" fill="#0A4A84"></path><path d="M91.9599 42.742V46.2734C91.9599 47.1334 92.2335 47.5765 93.1066 47.5765C93.4063 47.5765 93.7712 47.5244 93.9927 47.4201L94.0318 49.6484C93.6278 49.7918 92.9111 49.9351 92.2726 49.9351C89.7967 49.9351 88.9758 48.619 88.9758 46.6383V42.7289H87.4902V40.4485H88.9627V38.0117H91.9599V40.4485H94.136V42.7289H91.9599V42.742Z" fill="#0A4A84"></path><path d="M100.013 49.9999C97.224 49.9999 94.8784 48.0713 94.8784 45.0351C94.8784 41.9988 97.224 40.1484 100.013 40.1484C102.801 40.1484 105.16 42.0119 105.16 45.0351C105.16 48.0583 102.814 49.9999 100.013 49.9999ZM100.013 42.6765C98.5792 42.6765 97.8365 43.8492 97.8365 45.0351C97.8365 46.2209 98.5923 47.4328 100.026 47.4328C101.459 47.4328 102.215 46.2209 102.215 45.0351C102.215 43.8492 101.433 42.6765 99.9996 42.6765H100.013Z" fill="#0A4A84"></path><path d="M112.484 42.941C112.21 42.8628 111.95 42.8497 111.702 42.8497C110.06 42.8497 109.526 44.1919 109.526 44.9477V49.704H106.477V40.452H109.409V41.7942H109.448C109.917 40.869 110.829 40.1914 111.963 40.1914C112.21 40.1914 112.458 40.2175 112.614 40.2696L112.484 42.941Z" fill="#0A4A84"></path></g></svg>